# xmcd
#
# Track frame offsets: 
#        150
#        23981
#        39894
#        53617
#        77873
#
# Disc length: 1397 seconds
#
# Revision: 2
# Processed by: cddbd v1.5.2PL0 Copyright (c) Steve Scherf et al.
# Submitted via: ExactAudioCopy v0.99pb5
#
DISCID=30057305
DTITLE=Shiner - Making Love E.P.
DYEAR=1999
DGENRE=Hard Rock
TTITLE0=Fetch a Switch (Live)
TTITLE1=Third Gear Scratch (Live)
TTITLE2=He/She (Live)
TTITLE3=Cake (Live)
TTITLE4=Making Love
EXTD=
EXTT0=
EXTT1=
EXTT2=
EXTT3=
EXTT4=
PLAYORDER=
